<?xml version="1.0" encoding="utf-8"?>
<!-- Generator: Adobe Illustrator 26.0.1, SVG Export Plug-In . SVG Version: 6.00 Build 0)  -->
<svg version="1.1" id="Layer_1" xmlns="http://www.w3.org/2000/svg" xmlns:xlink="http://www.w3.org/1999/xlink" x="0px" y="0px"
	 viewBox="0 0 432 288" style="enable-background:new 0 0 432 288;" xml:space="preserve">
<style type="text/css">
	.st0{fill:#2553A2;}
	.st1{fill:#FFFFFF;}
	.st2{fill:#E92035;}
	.st3{enable-background:new    ;}
	.st4{fill:#2D2E2D;}
</style>
<path class="st0" d="M219.28,34.44c-22.84-1.49-41.9,16.6-41.9,39.15c0,6.07,1.32,11.79,3.83,16.77
	c4.46,11.22,23.75,33.37,31.82,42.3c1.89,2.12,5.27,2.12,7.15,0c7.73-8.59,25.7-29.31,31.82-42.3c4.81-10.36,5.84-22.95-1.26-35.43
	C244.24,43.37,232.45,35.3,219.28,34.44z M216.59,91.51c-9.9,0-17.97-8.07-17.97-17.97s8.07-17.97,17.97-17.97
	c9.9,0,17.97,8.07,17.97,17.97S226.49,91.51,216.59,91.51z"/>
<circle class="st1" cx="216.59" cy="73.54" r="32.45"/>
<path class="st2" d="M375.25,242.78H57.99c-12.02,0-21.75-8.36-21.75-18.66l13.28-69.89c0-10.3,9.73-18.66,21.75-18.66h290.76
	c12.02,0,21.75,8.36,21.75,18.66L397,224.13C397,234.43,387.27,242.78,375.25,242.78z"/>
<g>
	<g>
		<path class="st0" d="M238.63,64.95c-0.29-1.32-2.06-1.95-4.12-1.43c-0.46,0.11-0.86,0.29-1.26,0.46l0.92,2.52
			c0.06,0.06,0.11,0.06,0.17,0.17c0.46,0.46,0.92,0.92,1.32,1.49C237.6,67.58,238.91,66.21,238.63,64.95z"/>
	</g>
</g>
<g>
	<g>
		<path class="st0" d="M198.79,66.73c0.06-0.06,0.11-0.06,0.17-0.17l0.97-2.63c-0.34-0.17-0.69-0.34-1.14-0.4
			c-2.06-0.52-3.83,0.06-4.12,1.43c-0.29,1.26,0.97,2.58,2.86,3.21C197.87,67.58,198.33,67.13,198.79,66.73z"/>
	</g>
</g>
<g>
	<g>
		<path class="st0" d="M198.96,83.5v4.35c0,0.97,0.69,1.77,1.6,1.77h4.35c0.86,0,1.6-0.8,1.6-1.77v-3.78h-5.55
			C200.28,84.07,199.59,83.84,198.96,83.5z"/>
	</g>
</g>
<g>
	<g>
		<path class="st0" d="M226.66,84.07v3.78c0,0.97,0.69,1.77,1.6,1.77h4.35c0.86,0,1.6-0.8,1.6-1.77V83.5
			c-0.57,0.34-1.32,0.57-2,0.57H226.66L226.66,84.07z"/>
	</g>
</g>
<g>
	<g>
		<path class="st2" d="M233.82,67.47c-0.11-0.11-0.23-0.17-0.34-0.29l-3.55-9.84c-0.46-1.26-1.49-2-2.69-2h-21.12
			c-1.2,0-2.29,0.8-2.69,2l-3.55,9.84c-0.11,0.06-0.23,0.17-0.34,0.29c-2,1.77-2.8,4.41-2.52,8.24c0.11,1.77,0.52,3.49,1.09,5.15
			c0.23,0.69,0.69,1.26,1.26,1.6c0.52,0.4,1.14,0.57,1.77,0.57h31.25c0.63,0,1.26-0.17,1.77-0.57c0.57-0.4,0.97-0.97,1.26-1.6
			c0.57-1.66,0.97-3.38,1.09-5.15C236.57,71.88,235.76,69.19,233.82,67.47z M204.34,64.84l2.18-6.01c0.11-0.34,0.46-0.57,0.8-0.57
			h18.43c0.34,0,0.69,0.23,0.8,0.57l2.18,6.01c0.11,0.34,0.06,0.57-0.06,0.86c-0.17,0.29-0.46,0.46-0.69,0.46h-22.84
			c-0.29,0-0.57-0.17-0.69-0.46C204.34,65.47,204.28,65.12,204.34,64.84z M206,76.4h-4.12c-1.09,0-2.06-1.03-2.06-2.29v-1.03
			c0-0.46,0.34-0.8,0.69-0.8h3.21c0.86,0,1.6,0.34,2.12,0.97c0.57,0.57,0.86,1.43,0.86,2.35C206.75,76.05,206.4,76.4,206,76.4z
			 M224.2,73.42l-1.26,3.72c-0.06,0.29-0.34,0.46-0.63,0.46h-11.5c-0.29,0-0.57-0.17-0.63-0.46l-1.26-3.72
			c-0.11-0.4,0.17-0.86,0.63-0.86h13.97C224.03,72.56,224.32,73.02,224.2,73.42z M234.05,74.17c0,0.34-0.06,0.57-0.17,0.86
			c-0.34,0.8-1.03,1.37-1.89,1.37h-4.12c-0.4,0-0.69-0.34-0.69-0.8c0-0.92,0.34-1.72,0.86-2.35c0.57-0.57,1.26-0.97,2.12-0.97h3.21
			c0.4,0,0.69,0.34,0.69,0.8L234.05,74.17L234.05,74.17z"/>
	</g>
</g>
<path class="st1" d="M360.54,234.03H72.7c-10.87,0-19.69-6.98-19.69-15.63l12.02-58.44c0-8.64,8.81-15.63,19.69-15.63h263.8
	c10.87,0,19.69,6.98,19.69,15.63l12.02,58.44C380.23,226.99,371.42,234.03,360.54,234.03z"/>
<g>
	<g class="st3">
		<path class="st4" d="M85.53,171.12c-0.41-0.43-0.98-1.12-1.69-2.08c-0.5-0.67-0.86-1.12-1.06-1.34s-0.49-0.47-0.85-0.76
			c-0.48-0.37-0.78-0.64-0.89-0.8c-0.11-0.16-0.17-0.33-0.17-0.5c0-0.08,0.08-0.19,0.24-0.33c0.16-0.14,0.31-0.21,0.44-0.21
			c0.32,0,0.73,0.24,1.25,0.71c0.52,0.48,0.99,0.98,1.4,1.51c1.28,1.62,2.07,2.53,2.38,2.72c0.31-0.34,0.63-0.68,0.96-1.03
			c1.71-1.77,2.75-2.92,3.12-3.45c0.41-0.57,0.81-0.85,1.22-0.85c0.16,0,0.28,0.07,0.36,0.22c0.09,0.15,0.13,0.3,0.13,0.45
			c0,0.14-0.2,0.44-0.59,0.9c-0.39,0.46-1.42,1.56-3.1,3.31c-0.81,0.84-1.28,1.38-1.42,1.62c-0.14,0.24-0.27,0.95-0.4,2.12
			c-0.13,1.17-0.22,2.09-0.27,2.75c-0.03,0.4-0.07,0.63-0.12,0.68c-0.05,0.05-0.16,0.1-0.33,0.16c-0.17,0.05-0.3,0.08-0.4,0.08
			c-0.39,0-0.58-0.33-0.58-0.98c0-0.4,0.08-1.12,0.25-2.15c0.16-0.99,0.23-1.65,0.23-1.99C85.65,171.57,85.61,171.32,85.53,171.12z"
			/>
		<path class="st4" d="M93.7,176.91c-0.71,0-1.29-0.27-1.75-0.81c-0.46-0.54-0.69-1.2-0.69-2c0-1.33,0.45-2.65,1.35-3.95
			c0.9-1.3,1.97-1.94,3.23-1.94c0.83,0,1.5,0.32,2.01,0.96c0.51,0.64,0.77,1.39,0.77,2.27c0,1.35-0.53,2.59-1.6,3.74
			S94.85,176.91,93.7,176.91z M92.62,173.91c0,0.52,0.11,0.95,0.33,1.28c0.22,0.33,0.51,0.5,0.87,0.5c0.77,0,1.54-0.42,2.32-1.27
			c0.78-0.85,1.16-1.79,1.16-2.82c0-0.64-0.15-1.15-0.45-1.55c-0.3-0.4-0.7-0.59-1.2-0.59c-0.83,0-1.55,0.51-2.15,1.53
			C92.92,172.01,92.62,172.98,92.62,173.91z"/>
		<path class="st4" d="M105.9,173.15c-0.66,1.11-1.34,1.97-2.03,2.58c-0.69,0.61-1.34,0.92-1.93,0.92c-0.34,0-0.69-0.2-1.04-0.6
			s-0.53-1.01-0.53-1.84c0-0.68,0.16-1.68,0.49-3c0.27-1.1,0.41-1.88,0.41-2.32c0.15-0.31,0.39-0.47,0.71-0.47
			c0.22,0,0.39,0.08,0.52,0.23c0.13,0.15,0.19,0.31,0.19,0.48c0,0.36-0.13,0.88-0.38,1.54c-0.48,1.3-0.72,2.41-0.72,3.35
			c0,0.85,0.2,1.27,0.59,1.27c0.5,0,1.14-0.43,1.92-1.28c0.78-0.85,1.44-2.04,2-3.57c0.22-0.61,0.39-1.01,0.53-1.19
			c0.14-0.18,0.32-0.28,0.55-0.28c0.35,0,0.53,0.23,0.53,0.7c0,0.06-0.05,0.25-0.15,0.57c-0.31,1.13-0.47,2.2-0.47,3.21
			c0,1.21,0.2,2,0.6,2.35c0.21,0.19,0.31,0.35,0.31,0.47c0,0.14-0.1,0.28-0.31,0.4c-0.21,0.12-0.4,0.18-0.57,0.18
			c-0.36,0-0.65-0.27-0.88-0.81c-0.22-0.54-0.33-1.33-0.33-2.38v-0.26C105.89,173.32,105.9,173.24,105.9,173.15z"/>
		<path class="st4" d="M111.68,173.44c0.05-0.09,0.11-0.22,0.19-0.39c0.35-0.81,0.68-1.44,0.97-1.9s0.62-0.9,0.97-1.32
			c0.35-0.42,0.68-0.74,0.97-0.95c0.29-0.22,0.56-0.37,0.8-0.45c0.24-0.09,0.47-0.13,0.69-0.13c0.45,0,0.82,0.14,1.1,0.41
			c0.28,0.27,0.43,0.59,0.43,0.95c0,0.16-0.05,0.3-0.15,0.43c-0.1,0.13-0.25,0.19-0.46,0.19c-0.22,0-0.42-0.1-0.6-0.29
			c-0.19-0.19-0.38-0.29-0.58-0.29c-0.54,0-1.28,0.65-2.24,1.96c-0.95,1.3-1.53,2.74-1.74,4.31c-0.05,0.4-0.15,0.67-0.29,0.8
			c-0.15,0.13-0.35,0.19-0.61,0.19c-0.25,0-0.44-0.19-0.55-0.57s-0.17-1.01-0.17-1.91c0-0.24,0.01-0.78,0.04-1.61
			c0.03-0.98,0.09-1.77,0.19-2.37c0.02-0.1,0.04-0.33,0.08-0.69c0.04-0.4,0.08-0.68,0.14-0.83c0.05-0.16,0.17-0.3,0.33-0.43
			s0.35-0.2,0.55-0.2c0.19,0,0.33,0.06,0.43,0.18c0.1,0.12,0.14,0.25,0.14,0.39c0,0.2-0.05,0.49-0.16,0.85
			c-0.12,0.41-0.19,0.69-0.21,0.85c-0.02,0.18-0.04,0.36-0.09,0.55c-0.05,0.22-0.1,0.81-0.16,1.75l-0.01,0.29V173.44z"/>
		<path class="st4" d="M126.1,167.16c0-0.2-0.12-0.33-0.35-0.4c-0.42-0.1-0.64-0.28-0.64-0.54c0-0.19,0.08-0.38,0.25-0.56
			c0.17-0.18,0.35-0.28,0.54-0.28l1.09,0.03c0.51,0,1.17-0.03,2-0.1c0.82-0.07,1.44-0.1,1.85-0.1c1.43,0,2.58,0.4,3.44,1.21
			s1.3,1.86,1.3,3.18c0,1.44-0.62,2.76-1.86,3.95s-3,2.06-5.3,2.6c-0.91,0.22-1.52,0.44-1.84,0.66c-0.42,0.29-0.78,0.43-1.06,0.43
			c-0.2,0-0.37-0.1-0.52-0.31c-0.15-0.21-0.23-0.38-0.23-0.5c0-0.05,0.05-0.19,0.16-0.4c0.11-0.23,0.19-0.47,0.23-0.71
			s0.08-0.67,0.11-1.28c0.03-0.61,0.12-1.6,0.28-2.96c0.16-1.36,0.3-2.33,0.4-2.9C126.05,167.68,126.1,167.34,126.1,167.16z
			 M127.5,166.64c-0.62,3.7-0.92,6.31-0.92,7.83c0,0.34,0.03,0.59,0.1,0.76c0.04,0.04,0.12,0.05,0.24,0.05c0.33,0,1.2-0.22,2.6-0.65
			s2.54-1.11,3.42-2.01s1.31-1.94,1.31-3.09c0-0.96-0.34-1.72-1.01-2.29c-0.68-0.57-1.57-0.86-2.67-0.86
			c-0.67,0-1.48,0.06-2.43,0.19C127.92,166.6,127.71,166.62,127.5,166.64z"/>
		<path class="st4" d="M143.84,173.89c0,0.53-0.47,1.16-1.4,1.91s-1.9,1.12-2.89,1.12c-0.83,0-1.48-0.25-1.93-0.74
			c-0.45-0.49-0.68-1.18-0.68-2.06c0-1.48,0.5-2.89,1.5-4.22c1-1.33,2.09-2,3.28-2c0.39,0,0.71,0.13,0.95,0.38
			c0.25,0.25,0.37,0.56,0.37,0.92c0,0.8-0.39,1.56-1.17,2.29c-0.78,0.73-1.83,1.45-3.14,2.15c-0.27,0.14-0.4,0.32-0.4,0.54
			c0,0.43,0.12,0.77,0.37,1.03c0.25,0.26,0.62,0.39,1.1,0.39c1.11,0,2.25-0.62,3.41-1.85c0.17-0.17,0.3-0.26,0.39-0.26
			C143.76,173.5,143.84,173.63,143.84,173.89z M138.45,172.68c2.19-1.3,3.29-2.35,3.29-3.14c0-0.31-0.14-0.47-0.42-0.47
			c-0.48,0-1.01,0.35-1.61,1.05C139.11,170.82,138.69,171.67,138.45,172.68z"/>
		<path class="st4" d="M149.37,174.75c0-0.34-0.41-0.72-1.24-1.15c-1.05-0.54-1.76-0.97-2.13-1.29s-0.55-0.68-0.55-1.08
			c0-1.03,0.52-1.88,1.55-2.56c1.03-0.68,1.87-1.02,2.53-1.02c0.42,0,0.72,0.07,0.91,0.22c0.19,0.14,0.28,0.4,0.28,0.75
			c0,0.16-0.07,0.3-0.21,0.41s-0.24,0.17-0.32,0.17c-0.06,0-0.17-0.04-0.33-0.12c-0.17-0.07-0.27-0.11-0.33-0.11
			c-0.26,0-0.78,0.19-1.58,0.57c-0.79,0.38-1.19,0.8-1.19,1.28c0,0.29,0.14,0.55,0.42,0.79c0.28,0.24,0.78,0.52,1.51,0.87
			c0.58,0.28,1.05,0.58,1.4,0.9c0.35,0.32,0.52,0.69,0.52,1.12c0,0.79-0.55,1.41-1.64,1.86c-1.09,0.45-2.13,0.67-3.13,0.67
			c-0.84,0-1.26-0.29-1.26-0.85c0-0.2,0.09-0.34,0.28-0.43c0.19-0.09,0.38-0.14,0.57-0.14c0.08,0,0.23,0.03,0.44,0.08
			c0.21,0.05,0.35,0.08,0.42,0.08c0.57,0,1.19-0.1,1.85-0.29S149.21,175.03,149.37,174.75z"/>
		<path class="st4" d="M155.37,168.69c0.53-0.04,1.04-0.09,1.51-0.15c0.47-0.05,0.85-0.08,1.16-0.08c0.39,0,0.64,0.04,0.75,0.11
			s0.16,0.2,0.16,0.38c0,0.42-0.29,0.65-0.88,0.68c-0.75,0.05-1.44,0.11-2.07,0.19c-0.63,0.08-0.97,0.15-1.02,0.21
			c-0.05,0.05-0.21,0.67-0.47,1.85c-0.26,1.18-0.4,1.94-0.4,2.29c0,0.57,0.08,0.95,0.23,1.14c0.15,0.19,0.38,0.28,0.68,0.28
			c0.44,0,1.06-0.33,1.85-1c0.31-0.27,0.54-0.41,0.71-0.41c0.22,0,0.33,0.12,0.33,0.36c0,0.37-0.36,0.86-1.07,1.45
			c-0.72,0.59-1.45,0.89-2.2,0.89c-1.25,0-1.88-0.74-1.88-2.21c0-0.53,0.13-1.36,0.39-2.48c0.25-1.11,0.38-1.78,0.38-2
			c0-0.08-0.06-0.12-0.19-0.12l-0.81,0.07c-0.66,0-0.99-0.26-0.99-0.79c0-0.3,0.15-0.45,0.46-0.45h1.6c0.11,0,0.2-0.05,0.29-0.15
			c0.08-0.1,0.2-0.43,0.36-0.99c0.16-0.56,0.3-1.12,0.43-1.67c0.12-0.54,0.37-0.81,0.73-0.81c0.22,0,0.4,0.08,0.52,0.23
			s0.19,0.3,0.19,0.43c0,0.07-0.09,0.44-0.28,1.11L155.37,168.69z"/>
		<path class="st4" d="M161.14,174.8c0,0.39,0.05,0.84,0.16,1.33c0.02,0.09,0.03,0.17,0.03,0.23c0,0.09-0.09,0.21-0.26,0.36
			c-0.17,0.15-0.35,0.22-0.54,0.22c-0.5,0-0.75-0.46-0.75-1.38c0-0.95,0.2-2.46,0.59-4.52c0.13-0.72,0.2-1.16,0.2-1.33
			c0-0.33,0.06-0.6,0.18-0.83c0.12-0.23,0.29-0.35,0.5-0.35c0.26,0,0.47,0.06,0.62,0.19c0.15,0.13,0.23,0.27,0.23,0.42
			s-0.04,0.36-0.11,0.61c-0.39,1.37-0.63,2.34-0.72,2.93C161.19,173.29,161.14,173.99,161.14,174.8z M162.16,166.13
			c-0.11,0-0.19-0.12-0.25-0.35c-0.02-0.07-0.05-0.15-0.09-0.24c-0.14-0.34-0.21-0.63-0.21-0.88c0-0.21,0.12-0.42,0.37-0.63
			c0.25-0.21,0.52-0.32,0.82-0.32c0.15,0,0.32,0.06,0.5,0.17c0.19,0.12,0.28,0.23,0.28,0.34c0,0.17-0.06,0.46-0.19,0.87
			c-0.13,0.41-0.33,0.68-0.6,0.83C162.51,166.06,162.3,166.13,162.16,166.13z"/>
		<path class="st4" d="M169.54,170.56c-0.27,0-0.56,0.18-0.88,0.53c-0.32,0.35-0.8,1.14-1.46,2.37c-0.86,1.65-1.41,2.58-1.67,2.81
			s-0.46,0.34-0.62,0.34c-0.61,0-0.92-0.29-0.92-0.88c0-0.25,0.04-0.6,0.12-1.06c0.28-1.56,0.43-3.21,0.43-4.94
			c0-0.2,0.08-0.42,0.25-0.66c0.17-0.24,0.33-0.36,0.48-0.36c0.27,0,0.46,0.08,0.57,0.25c0.11,0.17,0.17,0.5,0.17,1
			c0,0.52-0.16,1.6-0.47,3.23c-0.1,0.54-0.16,0.88-0.16,1.02c0,0.08,0.02,0.12,0.06,0.12c0.08,0,0.44-0.62,1.08-1.86
			c0.65-1.26,1.21-2.14,1.7-2.65c0.49-0.51,1.02-0.77,1.61-0.77c0.47,0,0.84,0.21,1.14,0.64c0.29,0.42,0.51,1.2,0.64,2.32
			c0.15,1.28,0.28,2.07,0.39,2.39c0.12,0.31,0.3,0.47,0.55,0.47c0.16,0,0.36-0.06,0.61-0.17c0.04-0.02,0.07-0.03,0.09-0.03
			c0.22,0,0.33,0.13,0.33,0.39c0,0.23-0.15,0.47-0.46,0.73c-0.31,0.26-0.67,0.38-1.1,0.38c-0.44,0-0.78-0.17-1.02-0.52
			s-0.43-1.28-0.57-2.8C170.31,171.32,170.01,170.56,169.54,170.56z"/>
		<path class="st4" d="M180.03,173.7c-0.72,0.97-1.44,1.7-2.15,2.19s-1.36,0.73-1.95,0.73c-0.4,0-0.74-0.17-1.03-0.5
			c-0.29-0.34-0.43-0.77-0.43-1.3c0-1.36,0.61-2.83,1.82-4.4c1.22-1.57,2.42-2.36,3.62-2.36c0.43,0,0.76,0.25,0.97,0.75
			c0.07,0.17,0.17,0.25,0.32,0.25c0.41,0,0.62,0.16,0.62,0.48c0,0.16-0.03,0.38-0.08,0.66c-0.28,1.53-0.42,2.6-0.42,3.23
			c0,1.25,0.24,2,0.71,2.25c0.23,0.12,0.34,0.28,0.34,0.46c0,0.16-0.11,0.32-0.33,0.48c-0.22,0.16-0.44,0.25-0.64,0.25
			c-0.4,0-0.73-0.27-0.99-0.82C180.16,175.5,180.03,174.71,180.03,173.7z M179.55,169.33c-0.68,0-1.48,0.64-2.38,1.92
			c-0.91,1.28-1.36,2.34-1.36,3.19c0,0.59,0.2,0.89,0.59,0.89c0.57,0,1.36-0.57,2.37-1.72c1.01-1.15,1.51-2.2,1.51-3.17
			C180.28,169.7,180.04,169.33,179.55,169.33z"/>
		<path class="st4" d="M187.28,168.69c0.53-0.04,1.04-0.09,1.51-0.15c0.47-0.05,0.85-0.08,1.16-0.08c0.39,0,0.64,0.04,0.75,0.11
			s0.16,0.2,0.16,0.38c0,0.42-0.29,0.65-0.88,0.68c-0.75,0.05-1.44,0.11-2.07,0.19c-0.63,0.08-0.97,0.15-1.02,0.21
			c-0.05,0.05-0.21,0.67-0.47,1.85c-0.26,1.18-0.4,1.94-0.4,2.29c0,0.57,0.08,0.95,0.23,1.14c0.15,0.19,0.38,0.28,0.68,0.28
			c0.44,0,1.06-0.33,1.85-1c0.31-0.27,0.54-0.41,0.71-0.41c0.22,0,0.33,0.12,0.33,0.36c0,0.37-0.36,0.86-1.07,1.45
			c-0.72,0.59-1.45,0.89-2.2,0.89c-1.25,0-1.88-0.74-1.88-2.21c0-0.53,0.13-1.36,0.39-2.48c0.25-1.11,0.38-1.78,0.38-2
			c0-0.08-0.06-0.12-0.19-0.12l-0.81,0.07c-0.66,0-0.99-0.26-0.99-0.79c0-0.3,0.15-0.45,0.46-0.45h1.6c0.11,0,0.2-0.05,0.29-0.15
			c0.08-0.1,0.2-0.43,0.36-0.99c0.16-0.56,0.3-1.12,0.43-1.67c0.12-0.54,0.37-0.81,0.73-0.81c0.22,0,0.4,0.08,0.52,0.23
			s0.19,0.3,0.19,0.43c0,0.07-0.09,0.44-0.28,1.11L187.28,168.69z"/>
		<path class="st4" d="M193.06,174.8c0,0.39,0.05,0.84,0.16,1.33c0.02,0.09,0.03,0.17,0.03,0.23c0,0.09-0.08,0.21-0.26,0.36
			s-0.35,0.22-0.54,0.22c-0.5,0-0.75-0.46-0.75-1.38c0-0.95,0.2-2.46,0.59-4.52c0.13-0.72,0.2-1.16,0.2-1.33
			c0-0.33,0.06-0.6,0.18-0.83s0.29-0.35,0.5-0.35c0.26,0,0.47,0.06,0.62,0.19c0.15,0.13,0.23,0.27,0.23,0.42s-0.04,0.36-0.11,0.61
			c-0.39,1.37-0.63,2.34-0.72,2.93C193.11,173.29,193.06,173.99,193.06,174.8z M194.08,166.13c-0.11,0-0.19-0.12-0.25-0.35
			c-0.02-0.07-0.05-0.15-0.08-0.24c-0.14-0.34-0.21-0.63-0.21-0.88c0-0.21,0.12-0.42,0.37-0.63c0.25-0.21,0.52-0.32,0.82-0.32
			c0.15,0,0.32,0.06,0.5,0.17s0.28,0.23,0.28,0.34c0,0.17-0.06,0.46-0.19,0.87c-0.13,0.41-0.33,0.68-0.61,0.83
			C194.43,166.06,194.22,166.13,194.08,166.13z"/>
		<path class="st4" d="M198.44,176.91c-0.71,0-1.29-0.27-1.75-0.81c-0.46-0.54-0.69-1.2-0.69-2c0-1.33,0.45-2.65,1.35-3.95
			c0.9-1.3,1.97-1.94,3.23-1.94c0.83,0,1.5,0.32,2.01,0.96c0.52,0.64,0.77,1.39,0.77,2.27c0,1.35-0.53,2.59-1.59,3.74
			S199.59,176.91,198.44,176.91z M197.36,173.91c0,0.52,0.11,0.95,0.33,1.28s0.51,0.5,0.87,0.5c0.77,0,1.54-0.42,2.32-1.27
			s1.16-1.79,1.16-2.82c0-0.64-0.15-1.15-0.45-1.55s-0.7-0.59-1.2-0.59c-0.83,0-1.55,0.51-2.15,1.53
			C197.66,172.01,197.36,172.98,197.36,173.91z"/>
		<path class="st4" d="M210.45,170.56c-0.27,0-0.56,0.18-0.88,0.53c-0.32,0.35-0.8,1.14-1.46,2.37c-0.86,1.65-1.41,2.58-1.66,2.81
			c-0.25,0.23-0.46,0.34-0.62,0.34c-0.61,0-0.92-0.29-0.92-0.88c0-0.25,0.04-0.6,0.12-1.06c0.28-1.56,0.43-3.21,0.43-4.94
			c0-0.2,0.08-0.42,0.25-0.66c0.17-0.24,0.33-0.36,0.48-0.36c0.27,0,0.46,0.08,0.57,0.25c0.11,0.17,0.17,0.5,0.17,1
			c0,0.52-0.16,1.6-0.47,3.23c-0.1,0.54-0.16,0.88-0.16,1.02c0,0.08,0.02,0.12,0.06,0.12c0.08,0,0.44-0.62,1.08-1.86
			c0.65-1.26,1.21-2.14,1.7-2.65c0.49-0.51,1.02-0.77,1.61-0.77c0.47,0,0.84,0.21,1.14,0.64c0.29,0.42,0.51,1.2,0.64,2.32
			c0.14,1.28,0.28,2.07,0.39,2.39c0.12,0.31,0.3,0.47,0.56,0.47c0.16,0,0.36-0.06,0.61-0.17c0.04-0.02,0.07-0.03,0.09-0.03
			c0.22,0,0.33,0.13,0.33,0.39c0,0.23-0.15,0.47-0.46,0.73c-0.31,0.26-0.67,0.38-1.1,0.38c-0.44,0-0.78-0.17-1.02-0.52
			s-0.43-1.28-0.57-2.8C211.22,171.32,210.91,170.56,210.45,170.56z"/>
		<path class="st4" d="M215.85,178c0.96-0.24,1.58-0.58,1.86-1.01s0.41-0.75,0.41-0.94c0-0.53-0.07-0.9-0.22-1.12
			c-0.07-0.1-0.1-0.19-0.1-0.29c0-0.08,0.04-0.19,0.1-0.33c0.07-0.15,0.14-0.22,0.21-0.22c0.11,0,0.28,0.04,0.51,0.12
			c0.23,0.08,0.37,0.15,0.41,0.21c0.04,0.06,0.11,0.25,0.21,0.58c0.1,0.33,0.14,0.61,0.14,0.84c0,0.09-0.1,0.36-0.29,0.82
			c-0.19,0.46-0.46,0.82-0.8,1.07c-0.34,0.26-0.65,0.41-0.95,0.47c-0.12,0.02-0.23,0.05-0.33,0.08c-0.41,0.18-0.74,0.27-1,0.27
			c-0.15,0-0.22-0.12-0.22-0.36C215.79,178.1,215.81,178.04,215.85,178z"/>
		<path class="st4" d="M230.5,177.08c-0.83,0-1.56-0.41-2.21-1.23c-0.64-0.82-0.97-1.68-0.97-2.56c0-1.05,0.32-2.24,0.96-3.58
			c0.64-1.34,1.47-2.43,2.49-3.28c1.02-0.85,2.09-1.27,3.2-1.27c0.85,0,1.55,0.1,2.12,0.31c0.56,0.21,1.07,0.51,1.52,0.9
			c0.45,0.39,0.75,0.8,0.9,1.21c0.15,0.41,0.22,0.99,0.22,1.74c0,0.7-0.21,1.53-0.64,2.47c-0.42,0.94-1.08,1.86-1.98,2.76
			c-0.9,0.9-1.75,1.54-2.55,1.94C232.77,176.89,231.75,177.08,230.5,177.08z M228.75,173.22c0,0.72,0.23,1.33,0.68,1.82
			s0.98,0.74,1.58,0.74c1.56,0,3-0.72,4.31-2.16c1.31-1.44,1.96-2.96,1.96-4.58c0-0.62-0.12-1.1-0.36-1.46
			c-0.24-0.35-0.63-0.66-1.16-0.91s-1.13-0.38-1.79-0.38c-1.16,0-2.32,0.79-3.48,2.36C229.33,170.23,228.75,171.75,228.75,173.22z"
			/>
		<path class="st4" d="M245.55,173.15c-0.66,1.11-1.34,1.97-2.03,2.58c-0.69,0.61-1.34,0.92-1.93,0.92c-0.34,0-0.69-0.2-1.04-0.6
			s-0.53-1.01-0.53-1.84c0-0.68,0.16-1.68,0.49-3c0.27-1.1,0.41-1.88,0.41-2.32c0.15-0.31,0.38-0.47,0.71-0.47
			c0.22,0,0.39,0.08,0.52,0.23c0.13,0.15,0.19,0.31,0.19,0.48c0,0.36-0.13,0.88-0.38,1.54c-0.48,1.3-0.72,2.41-0.72,3.35
			c0,0.85,0.2,1.27,0.59,1.27c0.5,0,1.14-0.43,1.92-1.28c0.78-0.85,1.44-2.04,1.99-3.57c0.22-0.61,0.39-1.01,0.53-1.19
			c0.14-0.18,0.32-0.28,0.55-0.28c0.35,0,0.53,0.23,0.53,0.7c0,0.06-0.05,0.25-0.15,0.57c-0.31,1.13-0.47,2.2-0.47,3.21
			c0,1.21,0.2,2,0.6,2.35c0.21,0.19,0.31,0.35,0.31,0.47c0,0.14-0.11,0.28-0.31,0.4c-0.21,0.12-0.4,0.18-0.57,0.18
			c-0.36,0-0.66-0.27-0.88-0.81c-0.22-0.54-0.33-1.33-0.33-2.38v-0.26C245.55,173.32,245.55,173.24,245.55,173.15z"/>
		<path class="st4" d="M251.34,173.44c0.05-0.09,0.11-0.22,0.19-0.39c0.35-0.81,0.68-1.44,0.97-1.9s0.62-0.9,0.97-1.32
			c0.35-0.42,0.68-0.74,0.97-0.95c0.29-0.22,0.56-0.37,0.8-0.45c0.24-0.09,0.47-0.13,0.69-0.13c0.45,0,0.82,0.14,1.1,0.41
			c0.28,0.27,0.43,0.59,0.43,0.95c0,0.16-0.05,0.3-0.15,0.43c-0.1,0.13-0.25,0.19-0.46,0.19c-0.22,0-0.42-0.1-0.6-0.29
			c-0.19-0.19-0.38-0.29-0.58-0.29c-0.54,0-1.28,0.65-2.24,1.96c-0.95,1.3-1.53,2.74-1.74,4.31c-0.05,0.4-0.15,0.67-0.29,0.8
			c-0.14,0.13-0.35,0.19-0.61,0.19c-0.25,0-0.44-0.19-0.55-0.57s-0.17-1.01-0.17-1.91c0-0.24,0.01-0.78,0.04-1.61
			c0.03-0.98,0.09-1.77,0.19-2.37c0.02-0.1,0.04-0.33,0.08-0.69c0.04-0.4,0.08-0.68,0.14-0.83c0.05-0.16,0.17-0.3,0.33-0.43
			s0.35-0.2,0.55-0.2c0.19,0,0.33,0.06,0.43,0.18c0.1,0.12,0.14,0.25,0.14,0.39c0,0.2-0.05,0.49-0.16,0.85
			c-0.12,0.41-0.19,0.69-0.21,0.85c-0.02,0.18-0.04,0.36-0.08,0.55c-0.05,0.22-0.1,0.81-0.16,1.75l-0.01,0.29V173.44z"/>
		<path class="st4" d="M265.75,167.16c0-0.2-0.12-0.33-0.35-0.4c-0.42-0.1-0.64-0.28-0.64-0.54c0-0.19,0.08-0.38,0.25-0.56
			s0.35-0.28,0.54-0.28l1.09,0.03c0.51,0,1.17-0.03,2-0.1c0.82-0.07,1.44-0.1,1.85-0.1c1.43,0,2.58,0.4,3.44,1.21
			c0.87,0.8,1.3,1.86,1.3,3.18c0,1.44-0.62,2.76-1.86,3.95s-3,2.06-5.3,2.6c-0.91,0.22-1.52,0.44-1.84,0.66
			c-0.42,0.29-0.78,0.43-1.06,0.43c-0.2,0-0.37-0.1-0.52-0.31c-0.15-0.21-0.23-0.38-0.23-0.5c0-0.05,0.05-0.19,0.16-0.4
			c0.11-0.23,0.18-0.47,0.23-0.71s0.08-0.67,0.11-1.28c0.03-0.61,0.12-1.6,0.28-2.96c0.16-1.36,0.3-2.33,0.4-2.9
			C265.7,167.68,265.75,167.34,265.75,167.16z M267.16,166.64c-0.62,3.7-0.92,6.31-0.92,7.83c0,0.34,0.03,0.59,0.1,0.76
			c0.04,0.04,0.12,0.05,0.24,0.05c0.33,0,1.2-0.22,2.6-0.65s2.54-1.11,3.42-2.01c0.88-0.91,1.31-1.94,1.31-3.09
			c0-0.96-0.34-1.72-1.01-2.29c-0.67-0.57-1.57-0.86-2.67-0.86c-0.67,0-1.48,0.06-2.43,0.19
			C267.57,166.6,267.36,166.62,267.16,166.64z"/>
		<path class="st4" d="M283.5,173.89c0,0.53-0.47,1.16-1.4,1.91c-0.93,0.75-1.9,1.12-2.89,1.12c-0.83,0-1.48-0.25-1.93-0.74
			c-0.45-0.49-0.68-1.18-0.68-2.06c0-1.48,0.5-2.89,1.5-4.22c1-1.33,2.09-2,3.28-2c0.39,0,0.71,0.13,0.95,0.38
			c0.25,0.25,0.37,0.56,0.37,0.92c0,0.8-0.39,1.56-1.17,2.29c-0.78,0.73-1.83,1.45-3.14,2.15c-0.27,0.14-0.4,0.32-0.4,0.54
			c0,0.43,0.12,0.77,0.37,1.03s0.62,0.39,1.1,0.39c1.11,0,2.25-0.62,3.41-1.85c0.17-0.17,0.3-0.26,0.39-0.26
			C283.41,173.5,283.5,173.63,283.5,173.89z M278.1,172.68c2.19-1.3,3.29-2.35,3.29-3.14c0-0.31-0.14-0.47-0.42-0.47
			c-0.48,0-1.01,0.35-1.61,1.05C278.76,170.82,278.34,171.67,278.1,172.68z"/>
		<path class="st4" d="M290.68,173.31c-0.69,1.11-1.43,1.97-2.2,2.57c-0.78,0.6-1.49,0.9-2.14,0.9c-0.5,0-0.9-0.19-1.19-0.58
			s-0.44-0.9-0.44-1.54c0-1.31,0.53-2.65,1.59-4.03c1.06-1.38,2.21-2.06,3.44-2.06c0.54,0,1.04,0.23,1.5,0.69l1.09-5.08
			c0.08-0.35,0.22-0.58,0.43-0.7c0.21-0.12,0.37-0.18,0.49-0.18c0.36,0,0.54,0.32,0.54,0.96c0,0.11-0.12,0.54-0.36,1.27
			c-0.38,1.14-0.74,2.54-1.08,4.2s-0.51,2.99-0.51,3.99c0,1.03,0.23,1.55,0.68,1.55c0.29,0,0.59-0.1,0.9-0.29
			c0.13-0.09,0.25-0.14,0.36-0.14c0.17,0,0.25,0.11,0.25,0.33c0,0.26-0.23,0.57-0.7,0.92s-0.94,0.52-1.42,0.52
			c-0.85,0-1.28-0.82-1.28-2.47C290.64,173.88,290.66,173.6,290.68,173.31z M289.67,169.68c-0.84,0-1.67,0.57-2.49,1.7
			c-0.82,1.14-1.23,2.19-1.23,3.15c0,0.65,0.21,0.97,0.64,0.97c0.4,0,0.89-0.21,1.47-0.64c0.58-0.42,1.17-1.1,1.78-2.03
			c0.61-0.93,0.92-1.63,0.92-2.09c0-0.23-0.11-0.46-0.31-0.7C290.23,169.8,289.97,169.68,289.67,169.68z"/>
		<path class="st4" d="M297.11,174.8c0,0.39,0.05,0.84,0.16,1.33c0.02,0.09,0.03,0.17,0.03,0.23c0,0.09-0.08,0.21-0.26,0.36
			s-0.35,0.22-0.54,0.22c-0.5,0-0.75-0.46-0.75-1.38c0-0.95,0.2-2.46,0.59-4.52c0.13-0.72,0.2-1.16,0.2-1.33
			c0-0.33,0.06-0.6,0.18-0.83s0.29-0.35,0.5-0.35c0.26,0,0.47,0.06,0.62,0.19c0.15,0.13,0.23,0.27,0.23,0.42s-0.04,0.36-0.11,0.61
			c-0.39,1.37-0.63,2.34-0.72,2.93C297.16,173.29,297.11,173.99,297.11,174.8z M298.13,166.13c-0.11,0-0.19-0.12-0.25-0.35
			c-0.02-0.07-0.05-0.15-0.08-0.24c-0.14-0.34-0.21-0.63-0.21-0.88c0-0.21,0.12-0.42,0.37-0.63c0.25-0.21,0.52-0.32,0.82-0.32
			c0.15,0,0.32,0.06,0.5,0.17s0.28,0.23,0.28,0.34c0,0.17-0.06,0.46-0.19,0.87c-0.13,0.41-0.33,0.68-0.61,0.83
			C298.48,166.06,298.27,166.13,298.13,166.13z"/>
		<path class="st4" d="M302.34,176.97c-0.78,0-1.37-0.22-1.79-0.67c-0.42-0.44-0.62-1.07-0.62-1.87c0-1.35,0.54-2.78,1.61-4.27
			c1.07-1.5,2.07-2.25,2.99-2.25c0.42,0,0.78,0.23,1.08,0.68s0.45,0.93,0.45,1.44c0,0.31-0.07,0.57-0.2,0.79
			c-0.13,0.22-0.27,0.33-0.4,0.33c-0.3,0-0.51-0.3-0.64-0.91c-0.14-0.65-0.34-0.98-0.6-0.98c-0.54,0-1.17,0.64-1.91,1.92
			c-0.73,1.28-1.1,2.36-1.1,3.24s0.5,1.32,1.5,1.32c0.76,0,1.66-0.36,2.69-1.07c0.36-0.25,0.63-0.38,0.8-0.38
			c0.18,0,0.26,0.1,0.26,0.3c0,0.39-0.46,0.89-1.39,1.49C304.14,176.67,303.23,176.97,302.34,176.97z"/>
		<path class="st4" d="M313.51,173.7c-0.72,0.97-1.44,1.7-2.15,2.19s-1.36,0.73-1.95,0.73c-0.4,0-0.74-0.17-1.03-0.5
			c-0.29-0.34-0.43-0.77-0.43-1.3c0-1.36,0.61-2.83,1.82-4.4c1.22-1.57,2.42-2.36,3.62-2.36c0.43,0,0.76,0.25,0.97,0.75
			c0.07,0.17,0.17,0.25,0.32,0.25c0.41,0,0.62,0.16,0.62,0.48c0,0.16-0.03,0.38-0.08,0.66c-0.28,1.53-0.42,2.6-0.42,3.23
			c0,1.25,0.24,2,0.71,2.25c0.23,0.12,0.34,0.28,0.34,0.46c0,0.16-0.11,0.32-0.33,0.48s-0.44,0.25-0.64,0.25
			c-0.4,0-0.73-0.27-0.99-0.82C313.64,175.5,313.51,174.71,313.51,173.7z M313.04,169.33c-0.68,0-1.48,0.64-2.38,1.92
			c-0.91,1.28-1.36,2.34-1.36,3.19c0,0.59,0.2,0.89,0.59,0.89c0.57,0,1.36-0.57,2.37-1.72c1.01-1.15,1.51-2.2,1.51-3.17
			C313.77,169.7,313.52,169.33,313.04,169.33z"/>
		<path class="st4" d="M320.77,168.69c0.53-0.04,1.04-0.09,1.51-0.15c0.47-0.05,0.85-0.08,1.16-0.08c0.39,0,0.64,0.04,0.75,0.11
			s0.16,0.2,0.16,0.38c0,0.42-0.29,0.65-0.88,0.68c-0.75,0.05-1.44,0.11-2.07,0.19c-0.63,0.08-0.97,0.15-1.02,0.21
			c-0.05,0.05-0.21,0.67-0.47,1.85c-0.26,1.18-0.4,1.94-0.4,2.29c0,0.57,0.07,0.95,0.22,1.14c0.15,0.19,0.38,0.28,0.68,0.28
			c0.44,0,1.06-0.33,1.85-1c0.31-0.27,0.54-0.41,0.71-0.41c0.22,0,0.33,0.12,0.33,0.36c0,0.37-0.36,0.86-1.08,1.45
			c-0.72,0.59-1.45,0.89-2.2,0.89c-1.25,0-1.88-0.74-1.88-2.21c0-0.53,0.13-1.36,0.39-2.48c0.25-1.11,0.38-1.78,0.38-2
			c0-0.08-0.06-0.12-0.19-0.12l-0.81,0.07c-0.66,0-0.99-0.26-0.99-0.79c0-0.3,0.15-0.45,0.46-0.45h1.6c0.11,0,0.2-0.05,0.29-0.15
			c0.08-0.1,0.2-0.43,0.37-0.99c0.16-0.56,0.3-1.12,0.43-1.67c0.12-0.54,0.37-0.81,0.73-0.81c0.22,0,0.4,0.08,0.52,0.23
			c0.12,0.16,0.19,0.3,0.19,0.43c0,0.07-0.09,0.44-0.28,1.11L320.77,168.69z"/>
		<path class="st4" d="M326.54,174.8c0,0.39,0.05,0.84,0.16,1.33c0.02,0.09,0.03,0.17,0.03,0.23c0,0.09-0.08,0.21-0.26,0.36
			s-0.35,0.22-0.54,0.22c-0.5,0-0.75-0.46-0.75-1.38c0-0.95,0.2-2.46,0.59-4.52c0.13-0.72,0.2-1.16,0.2-1.33
			c0-0.33,0.06-0.6,0.18-0.83s0.29-0.35,0.5-0.35c0.26,0,0.47,0.06,0.62,0.19c0.15,0.13,0.23,0.27,0.23,0.42s-0.04,0.36-0.11,0.61
			c-0.39,1.37-0.63,2.34-0.72,2.93C326.59,173.29,326.54,173.99,326.54,174.8z M327.56,166.13c-0.11,0-0.19-0.12-0.25-0.35
			c-0.02-0.07-0.05-0.15-0.08-0.24c-0.14-0.34-0.21-0.63-0.21-0.88c0-0.21,0.12-0.42,0.37-0.63c0.25-0.21,0.52-0.32,0.82-0.32
			c0.15,0,0.32,0.06,0.5,0.17s0.28,0.23,0.28,0.34c0,0.17-0.06,0.46-0.19,0.87c-0.13,0.41-0.33,0.68-0.61,0.83
			C327.92,166.06,327.71,166.13,327.56,166.13z"/>
		<path class="st4" d="M331.92,176.91c-0.71,0-1.29-0.27-1.75-0.81c-0.46-0.54-0.69-1.2-0.69-2c0-1.33,0.45-2.65,1.35-3.95
			c0.9-1.3,1.97-1.94,3.23-1.94c0.83,0,1.5,0.32,2.01,0.96c0.52,0.64,0.77,1.39,0.77,2.27c0,1.35-0.53,2.59-1.59,3.74
			S333.07,176.91,331.92,176.91z M330.84,173.91c0,0.52,0.11,0.95,0.33,1.28s0.51,0.5,0.87,0.5c0.77,0,1.54-0.42,2.32-1.27
			s1.16-1.79,1.16-2.82c0-0.64-0.15-1.15-0.45-1.55s-0.7-0.59-1.2-0.59c-0.83,0-1.55,0.51-2.15,1.53
			C331.14,172.01,330.84,172.98,330.84,173.91z"/>
		<path class="st4" d="M343.93,170.56c-0.27,0-0.56,0.18-0.88,0.53c-0.32,0.35-0.8,1.14-1.46,2.37c-0.86,1.65-1.41,2.58-1.66,2.81
			c-0.25,0.23-0.46,0.34-0.62,0.34c-0.61,0-0.92-0.29-0.92-0.88c0-0.25,0.04-0.6,0.12-1.06c0.28-1.56,0.43-3.21,0.43-4.94
			c0-0.2,0.08-0.42,0.25-0.66c0.17-0.24,0.33-0.36,0.48-0.36c0.27,0,0.46,0.08,0.57,0.25c0.11,0.17,0.17,0.5,0.17,1
			c0,0.52-0.16,1.6-0.47,3.23c-0.1,0.54-0.16,0.88-0.16,1.02c0,0.08,0.02,0.12,0.06,0.12c0.08,0,0.44-0.62,1.08-1.86
			c0.65-1.26,1.21-2.14,1.7-2.65c0.49-0.51,1.02-0.77,1.61-0.77c0.47,0,0.84,0.21,1.14,0.64c0.29,0.42,0.51,1.2,0.64,2.32
			c0.14,1.28,0.28,2.07,0.39,2.39c0.12,0.31,0.3,0.47,0.56,0.47c0.16,0,0.36-0.06,0.61-0.17c0.04-0.02,0.07-0.03,0.09-0.03
			c0.22,0,0.33,0.13,0.33,0.39c0,0.23-0.15,0.47-0.46,0.73c-0.31,0.26-0.67,0.38-1.1,0.38c-0.44,0-0.78-0.17-1.02-0.52
			s-0.43-1.28-0.57-2.8C344.7,171.32,344.4,170.56,343.93,170.56z"/>
	</g>
	<g>
		<g>
			<path class="st0" d="M85.98,192.87c-0.57,0-1.2,0.06-1.77,0.23c-0.57,0.17-1.09,0.4-1.49,0.69c-0.46,0.34-0.8,0.69-1.09,1.14
				c-0.29,0.46-0.4,0.97-0.4,1.6v9.67c0,0.57,0.17,1.09,0.4,1.55c0.29,0.46,0.63,0.8,1.09,1.09c0.46,0.29,0.97,0.52,1.6,0.63
				c0.57,0.17,1.2,0.23,1.83,0.23s1.26-0.06,1.83-0.23s1.09-0.34,1.6-0.63c0.46-0.29,0.86-0.63,1.14-1.09
				c0.29-0.46,0.46-0.97,0.46-1.55v-1.26h-6.07v-5.38h11.45v6.64c0,1.49-0.29,2.8-0.86,3.83c-0.57,1.09-1.37,2-2.35,2.8
				c-0.97,0.74-2.06,1.32-3.32,1.66c-1.26,0.4-2.52,0.57-3.83,0.57c-1.32,0-2.58-0.17-3.83-0.57c-1.26-0.34-2.4-0.92-3.32-1.66
				c-0.97-0.74-1.77-1.66-2.4-2.8c-0.57-1.09-0.92-2.4-0.92-3.95v-9.67c0-1.43,0.29-2.75,0.86-3.83c0.57-1.09,1.37-2,2.35-2.75
				s2.06-1.26,3.32-1.66c1.26-0.4,2.52-0.57,3.83-0.57c0.92,0,1.77,0.06,2.69,0.34c0.92,0.17,1.77,0.52,2.58,0.97
				c0.8,0.46,1.55,0.97,2.29,1.77c0.69,0.69,1.32,1.6,1.77,2.69l-4.46,2.4c-0.46-0.97-1.09-1.77-2.06-2.23
				C87.92,193.1,87.01,192.87,85.98,192.87z"/>
			<path class="st0" d="M105.49,214.8h-5.55v-26.61h5.55V214.8z"/>
			<path class="st0" d="M122.95,198.77h11.45v5.38h-11.45v5.27h12.48v5.38H117.4v-26.61h18.03v5.38h-12.48V198.77L122.95,198.77z"/>
			<path class="st0" d="M153.97,214.8l-5.32-9.39l-4.92,9.39h-6.81l7.84-13.28l-7.78-13.34h6.7l4.92,9.44l5.38-9.44h6.7l-8.41,13.39
				l8.41,13.22H153.97L153.97,214.8z"/>
			<path class="st0" d="M163.02,188.12h10.47c2.12,0,3.89,0.46,5.27,1.37c1.37,0.92,2.46,2.06,3.15,3.43
				c0.69,1.37,1.03,2.8,1.03,4.41c0,1.6-0.34,3.03-1.09,4.41c-0.69,1.37-1.77,2.52-3.21,3.43c-1.37,0.92-3.15,1.37-5.21,1.37h-5.04
				v8.24h-5.49L163.02,188.12L163.02,188.12z M173.49,201.35c0.92,0,1.66-0.17,2.29-0.57c0.57-0.34,1.03-0.86,1.37-1.37
				c0.34-0.57,0.46-1.2,0.46-1.83s-0.17-1.26-0.46-1.83c-0.29-0.57-0.74-1.03-1.37-1.37c-0.57-0.34-1.37-0.57-2.29-0.57h-4.98v7.61
				L173.49,201.35L173.49,201.35z"/>
			<path class="st0" d="M191.75,205.07v9.73h-5.55v-26.61h10.47c1.32,0,2.52,0.17,3.72,0.46c1.14,0.34,2.12,0.8,2.98,1.49
				c0.86,0.69,1.49,1.6,2,2.69c0.46,1.09,0.74,2.4,0.8,3.83c0,2.46-0.52,4.29-1.6,5.55c-1.09,1.26-2.52,2.06-4.46,2.4l7.96,10.07
				h-6.81l-7.56-9.73L191.75,205.07L191.75,205.07z M196.67,199.97c1.26,0,2.18-0.23,2.92-0.74c0.69-0.52,1.09-1.37,1.09-2.52
				c0-1.09-0.34-1.89-1.09-2.4c-0.69-0.4-1.55-0.57-2.52-0.57c-0.06,0-0.17,0-0.34,0h-4.92v6.3h4.87V199.97z"/>
			<path class="st0" d="M215.5,198.77h11.45v5.38H215.5v5.27h12.48v5.38h-18.03v-26.61h18.03v5.38H215.5V198.77z"/>
			<path class="st0" d="M240.46,209.82c0.97,0,1.83-0.23,2.58-0.69c0.86-0.46,1.26-1.26,1.26-2.23c0-0.52-0.11-0.92-0.4-1.26
				c-0.29-0.4-0.63-0.69-1.09-0.92s-0.97-0.4-1.66-0.57c-0.63-0.11-1.32-0.23-2-0.34c-1.09-0.17-2.06-0.4-3.09-0.74
				c-1.03-0.34-1.89-0.86-2.69-1.49c-0.8-0.63-1.43-1.49-1.89-2.46c-0.46-0.97-0.69-2.12-0.69-3.49c0-0.06,0-0.17,0-0.23
				c0.06-1.26,0.4-2.35,0.97-3.32c0.57-0.97,1.32-1.77,2.18-2.4s1.89-1.09,3.03-1.43c1.09-0.34,2.29-0.46,3.49-0.46
				c1.72,0,3.38,0.34,4.92,1.09c1.55,0.69,2.92,1.95,4.06,3.61l-4.52,3.03c-0.57-0.86-1.26-1.49-2-1.89
				c-0.74-0.4-1.55-0.57-2.4-0.57c-0.52,0-1.03,0.06-1.49,0.17c-0.46,0.06-0.92,0.23-1.26,0.46c-0.4,0.17-0.69,0.46-0.92,0.86
				c-0.23,0.34-0.34,0.69-0.4,1.2v0.06c0,0.57,0.11,0.97,0.4,1.32c0.29,0.34,0.57,0.57,1.03,0.8s0.92,0.4,1.49,0.46
				c0.57,0.11,1.09,0.23,1.66,0.34c1.14,0.23,2.29,0.52,3.38,0.86c1.09,0.34,2.06,0.86,2.92,1.49c0.86,0.69,1.49,1.49,2,2.52
				c0.46,0.92,0.63,2,0.63,3.32c0,0.17,0,0.4,0,0.57c-0.11,1.26-0.46,2.35-1.09,3.32c-0.57,0.97-1.37,1.77-2.29,2.4
				c-0.97,0.63-2,1.14-3.15,1.49c-1.14,0.34-2.35,0.52-3.55,0.52c-1.72,0-3.43-0.4-5.09-1.26c-1.66-0.86-3.03-2.12-4.18-3.83
				l4.18-3.21c0.57,0.97,1.43,1.66,2.46,2.12c1.09,0.46,2.12,0.74,3.09,0.74C240.34,209.82,240.4,209.82,240.46,209.82z"/>
			<path class="st0" d="M261.81,209.82c0.97,0,1.83-0.23,2.58-0.69c0.86-0.46,1.26-1.26,1.26-2.23c0-0.52-0.11-0.92-0.4-1.26
				c-0.29-0.4-0.63-0.69-1.09-0.92s-0.97-0.4-1.66-0.57c-0.63-0.11-1.32-0.23-2-0.34c-1.09-0.17-2.06-0.4-3.09-0.74
				c-1.03-0.34-1.89-0.86-2.69-1.49c-0.8-0.63-1.43-1.49-1.89-2.46c-0.46-0.97-0.69-2.12-0.69-3.49c0-0.06,0-0.17,0-0.23
				c0.06-1.26,0.4-2.35,0.97-3.32c0.57-0.97,1.32-1.77,2.18-2.4c0.86-0.63,1.89-1.09,3.03-1.43c1.09-0.34,2.29-0.46,3.49-0.46
				c1.72,0,3.38,0.34,4.92,1.09c1.55,0.69,2.92,1.95,4.06,3.61l-4.52,3.03c-0.57-0.86-1.26-1.49-2-1.89s-1.55-0.57-2.4-0.57
				c-0.52,0-1.03,0.06-1.49,0.17c-0.46,0.06-0.92,0.23-1.26,0.46c-0.4,0.17-0.69,0.46-0.92,0.86c-0.23,0.34-0.34,0.69-0.4,1.2v0.06
				c0,0.57,0.11,0.97,0.4,1.32s0.57,0.57,1.03,0.8c0.46,0.23,0.92,0.4,1.49,0.46c0.57,0.11,1.09,0.23,1.66,0.34
				c1.14,0.23,2.29,0.52,3.38,0.86c1.09,0.34,2.06,0.86,2.92,1.49c0.86,0.69,1.49,1.49,2,2.52c0.46,0.92,0.63,2,0.63,3.32
				c0,0.17,0,0.4,0,0.57c-0.11,1.26-0.46,2.35-1.09,3.32c-0.57,0.97-1.37,1.77-2.29,2.4c-0.97,0.63-2,1.14-3.15,1.49
				c-1.14,0.34-2.35,0.52-3.55,0.52c-1.72,0-3.43-0.4-5.09-1.26c-1.66-0.86-3.03-2.12-4.18-3.83l4.18-3.21
				c0.57,0.97,1.43,1.66,2.46,2.12c1.09,0.46,2.12,0.74,3.09,0.74C261.64,209.82,261.75,209.82,261.81,209.82z"/>
			<path class="st0" d="M292.31,193.68v21.06h-5.55v-21.06h-7.61v-5.55h20.83v5.55H292.31z"/>
			<path class="st0" d="M321.73,214.8h-5.78l-2.35-6.07h-7.96l-2.23,6.07h-5.84l9.33-26.61h5.27L321.73,214.8z M307.08,203.63h5.15
				l-1.66-5.78l-0.86-3.78h-0.29l-0.86,3.83L307.08,203.63z"/>
			<path class="st0" d="M338.56,214.8l-5.32-9.39l-4.92,9.39h-6.81l7.84-13.28l-7.78-13.34h6.7l4.92,9.44l5.38-9.44h6.7l-8.41,13.39
				l8.41,13.22H338.56L338.56,214.8z"/>
			<path class="st0" d="M353.04,214.8h-5.55v-26.61h5.55V214.8z"/>
		</g>
	</g>
</g>
</svg>
