<svg width="168" height="57" viewBox="0 0 168 57" fill="none" xmlns="http://www.w3.org/2000/svg">
<path d="M29.3572 56.885C22.9922 56.885 17.8135 51.7063 17.8135 45.3431V11.543C17.8135 5.17866 22.9922 0 29.3572 0C35.7221 0 40.8996 5.17807 40.8996 11.543V45.3431C40.8996 51.7063 35.7221 56.885 29.3572 56.885Z" fill="#5A5A5A"/>
<path d="M37.2781 45.3427C37.2781 49.7159 33.7322 53.2636 29.3572 53.2636C24.981 53.2636 21.4351 49.7165 21.4351 45.3427V11.5426C21.4351 7.16703 24.981 3.62109 29.3572 3.62109C33.7322 3.62109 37.2781 7.16703 37.2781 11.5426V45.3427Z" fill="#414042"/>
<path d="M29.3572 53.8245C24.6793 53.8245 20.8735 50.0194 20.8735 45.3426V11.5426C20.8735 6.86522 24.6793 3.06006 29.3572 3.06006C34.0339 3.06006 37.8397 6.86522 37.8397 11.5426V45.3426C37.8397 50.0194 34.0339 53.8245 29.3572 53.8245ZM29.3572 4.18259C25.2981 4.18259 21.9955 7.48465 21.9955 11.5426V45.3426C21.9955 49.4005 25.2981 52.702 29.3572 52.702C33.4151 52.702 36.7178 49.4005 36.7178 45.3426V11.5426C36.7178 7.48465 33.4151 4.18259 29.3572 4.18259Z" fill="#231F20"/>
<path d="M35.0148 28.4417C35.0148 31.5666 32.4827 34.1005 29.3572 34.1005C26.2317 34.1005 23.6985 31.5666 23.6985 28.4417C23.6985 25.3168 26.2317 22.7842 29.3572 22.7842C32.4827 22.7842 35.0148 25.3168 35.0148 28.4417Z" fill="#FFF200"/>
<path d="M35.0148 45.2778C35.0148 48.4033 32.4827 50.9353 29.3572 50.9353C26.2317 50.9353 23.6985 48.4033 23.6985 45.2778C23.6985 42.1517 26.2317 39.6196 29.3572 39.6196C32.4827 39.6196 35.0148 42.1517 35.0148 45.2778Z" fill="#8DC63F"/>
<path d="M35.0148 11.4519C35.0148 14.5786 32.4827 17.1112 29.3572 17.1112C26.2317 17.1112 23.6985 14.5792 23.6985 11.4519C23.6985 8.32815 26.2317 5.79492 29.3572 5.79492C32.4827 5.79492 35.0148 8.32756 35.0148 11.4519Z" fill="#ED1C24"/>
<path d="M28.2476 33.9918C28.7566 34.2032 28.8263 34.7299 28.6864 35.3257C28.5464 35.9221 29.317 35.869 29.1936 35.3257C29.0725 34.7819 29.0897 34.3136 29.5975 34.1004C30.1059 33.8872 29.5101 33.3257 29.5101 33.3257L28.7041 33.4485L28.2476 33.9918Z" fill="#FFF200"/>
<path d="M29.1942 36.3782C29.1942 36.5324 29.0684 36.6581 28.9137 36.6581C28.7596 36.6581 28.6332 36.5324 28.6332 36.3782C28.6332 36.2224 28.7596 36.0972 28.9137 36.0972C29.0684 36.0972 29.1942 36.2224 29.1942 36.3782Z" fill="#FFF200"/>
<path d="M25.1841 15.2739C25.9506 16.1219 26.1437 17.069 25.9671 17.9288C25.7929 18.788 26.6692 18.6823 26.5122 17.9288C26.3533 17.1741 26.7749 16.961 27.0029 17.111C27.2314 17.2615 27.3188 17.5249 27.2125 18.0333C27.108 18.5423 27.8272 18.5423 27.6861 18.0162C27.5461 17.4901 27.5544 16.9681 28.4567 17.0395C29.3572 17.111 28.4567 16.2973 28.4567 16.2973L25.8278 15.2739H25.1841Z" fill="#ED1C24"/>
<path d="M26.4933 19.1732C26.4933 19.3374 26.3599 19.4714 26.1957 19.4714C26.0315 19.4714 25.8969 19.3374 25.8969 19.1732C25.8969 19.009 26.0315 18.875 26.1957 18.875C26.3605 18.875 26.4933 19.009 26.4933 19.1732Z" fill="#ED1C24"/>
<path d="M28.4567 50.8622C29.1044 50.9277 29.03 51.6558 28.9137 52.1377C28.7566 52.7925 29.6619 52.8155 29.4983 52.1377C29.3359 51.4604 29.4115 51.0009 30.0209 50.8952C30.6309 50.7907 29.3572 50.0562 29.3572 50.0562C29.3572 50.0562 28.7909 50.1973 28.7566 50.2492C28.7212 50.3018 28.4567 50.8622 28.4567 50.8622Z" fill="#8DC63F"/>
<path d="M27.085 15.4681C27.0165 15.4681 26.945 15.451 26.8806 15.4138C25.3749 14.5829 24.4401 12.9998 24.4401 11.2803C24.4401 8.67797 26.5571 6.56104 29.1594 6.56104C29.395 6.56104 29.5857 6.75118 29.5857 6.98678C29.5857 7.2218 29.3956 7.41312 29.1594 7.41312C27.0265 7.41312 25.2904 9.148 25.2904 11.2803C25.2904 12.6904 26.0569 13.9877 27.2905 14.6686C27.4983 14.7831 27.5727 15.0418 27.4576 15.2478C27.3814 15.3884 27.2355 15.4681 27.085 15.4681Z" fill="#FF0000"/>
<path d="M27.085 32.5849C27.0165 32.5849 26.945 32.5672 26.8806 32.5306C25.3749 31.6997 24.4401 30.1154 24.4401 28.3971C24.4401 25.7948 26.5571 23.6772 29.1594 23.6772C29.395 23.6772 29.5857 23.8674 29.5857 24.1036C29.5857 24.338 29.3956 24.5299 29.1594 24.5299C27.0265 24.5299 25.2904 26.2642 25.2904 28.3971C25.2904 29.8066 26.0569 31.1039 27.2905 31.7854C27.4983 31.8999 27.5727 32.158 27.4576 32.3641C27.3814 32.5052 27.2355 32.5849 27.085 32.5849Z" fill="#FFF22E"/>
<path d="M31.2385 24.0822C31.2385 24.3379 31.0306 24.5451 30.7755 24.5451C30.5181 24.5451 30.312 24.3379 30.312 24.0822C30.312 23.8259 30.5181 23.6187 30.7755 23.6187C31.0312 23.6192 31.2385 23.8265 31.2385 24.0822Z" fill="#FFF22E"/>
<path d="M31.529 41.0903C31.5993 41.0903 31.669 41.108 31.7351 41.1447C33.2409 41.9755 34.1756 43.5592 34.1756 45.2781C34.1756 47.8805 32.0587 49.998 29.4564 49.998C29.2208 49.998 29.03 49.8078 29.03 49.5716C29.03 49.3372 29.2202 49.1459 29.4564 49.1459C31.5892 49.1459 33.3241 47.4116 33.3241 45.2781C33.3241 43.8686 32.5577 42.5707 31.3235 41.8899C31.1174 41.7765 31.043 41.5179 31.1582 41.3112C31.2332 41.1706 31.379 41.0903 31.529 41.0903Z" fill="#8DE63F"/>
<path d="M27.3766 49.5934C27.3766 49.3371 27.5827 49.1299 27.8396 49.1299C28.0959 49.1299 28.3031 49.3371 28.3031 49.5934C28.3031 49.8491 28.0953 50.0564 27.8396 50.0564C27.5827 50.0564 27.3766 49.8491 27.3766 49.5934Z" fill="#8DE63F"/>
<path d="M58.0997 27.9956H41.463H40.9026H40.3411H37.8421H37.2817H36.7195H35.0183C34.9982 27.9956 34.9811 28.0056 34.9622 28.0068C34.9805 28.1916 35.0183 28.3688 35.0183 28.5572C35.0183 28.7449 34.9811 28.9233 34.9622 29.1069C34.9805 29.1087 34.9982 29.1175 35.0183 29.1175H36.7195H37.2817H37.8421H40.3411H40.9026H41.463H58.0997C58.4097 29.1175 58.6601 28.8672 58.6601 28.5572C58.6601 28.2472 58.4097 27.9956 58.0997 27.9956Z" fill="#0F0F0F"/>
<path d="M35.0177 12.1284H36.7189H37.2811H37.8415H40.3404H40.902H41.4624H58.0991C58.4091 12.1284 58.6594 11.878 58.6594 11.568C58.6594 11.258 58.4091 11.0059 58.0991 11.0059H41.4293H40.8689H40.3068H37.8078H37.248H36.6859H35.0177C34.9976 11.0059 34.9805 11.0159 34.9616 11.0171C34.9799 11.2019 35.0177 11.3785 35.0177 11.5674C35.0177 11.7564 34.9805 11.9335 34.9616 12.1178C34.9799 12.1201 34.9976 12.1284 35.0177 12.1284Z" fill="#58595B"/>
<path d="M23.6984 44.726C23.6801 44.7248 23.6624 44.7153 23.6423 44.7153H21.9393H21.3778H20.8174H18.3196H17.758H17.1976H0.56038C0.252141 44.7153 0 44.9663 0 45.2763C0 45.5869 0.252141 45.8379 0.56038 45.8379H17.2213H17.7834H18.3438H20.8422H21.4026H21.9647H23.6417C23.6618 45.8379 23.6789 45.8284 23.6978 45.8272C23.6795 45.643 23.6417 45.4653 23.6417 45.2781C23.6423 45.0885 23.6801 44.9108 23.6984 44.726Z" fill="#58595B"/>
<path d="M30.7767 6.6167C30.5205 6.6167 30.3138 6.82456 30.3138 7.08142C30.3138 7.3377 30.521 7.54437 30.7767 7.54437C31.0336 7.54437 31.2415 7.3377 31.2415 7.08142C31.2415 6.82456 31.0342 6.6167 30.7767 6.6167Z" fill="#FF0000"/>
<path d="M45.0568 29.8125V27.5455H58.5653V29.8125H53.1193V45H50.4943V29.8125H45.0568ZM59.9865 45V31.9091H62.4496V33.9886H62.5859C62.8246 33.2841 63.245 32.7301 63.8473 32.3267C64.4553 31.9176 65.1428 31.7131 65.9098 31.7131C66.0689 31.7131 66.2564 31.7187 66.4723 31.7301C66.6939 31.7415 66.8672 31.7557 66.9922 31.7727V34.2102C66.8899 34.1818 66.7081 34.1506 66.4467 34.1165C66.1854 34.0767 65.924 34.0568 65.6626 34.0568C65.0604 34.0568 64.5234 34.1847 64.0518 34.4403C63.5859 34.6903 63.2166 35.0398 62.9439 35.4886C62.6712 35.9318 62.5348 36.4375 62.5348 37.0057V45H59.9865ZM72.8899 45.2898C72.0604 45.2898 71.3104 45.1364 70.6399 44.8295C69.9695 44.517 69.4382 44.0653 69.0462 43.4744C68.6598 42.8835 68.4666 42.1591 68.4666 41.3011C68.4666 40.5625 68.6087 39.9545 68.8928 39.4773C69.1768 39 69.5604 38.6222 70.0433 38.3438C70.5263 38.0653 71.0661 37.8551 71.6626 37.7131C72.2592 37.571 72.8672 37.4631 73.4865 37.3892C74.2706 37.2983 74.907 37.2244 75.3956 37.1676C75.8842 37.1051 76.2393 37.0057 76.4609 36.8693C76.6825 36.733 76.7933 36.5114 76.7933 36.2045V36.1449C76.7933 35.4006 76.5831 34.8239 76.1626 34.4148C75.7479 34.0057 75.1286 33.8011 74.3047 33.8011C73.4467 33.8011 72.7706 33.9915 72.2763 34.3722C71.7876 34.7472 71.4496 35.1648 71.2621 35.625L68.8672 35.0795C69.1513 34.2841 69.5661 33.642 70.1115 33.1534C70.6626 32.6591 71.2962 32.3011 72.0121 32.0795C72.728 31.8523 73.4808 31.7386 74.2706 31.7386C74.7933 31.7386 75.3473 31.8011 75.9325 31.9261C76.5234 32.0455 77.0746 32.267 77.5859 32.5909C78.103 32.9148 78.5263 33.3778 78.8558 33.9801C79.1854 34.5767 79.3501 35.3523 79.3501 36.3068V45H76.8615V43.2102H76.7592C76.5945 43.5398 76.3473 43.8636 76.0178 44.1818C75.6882 44.5 75.2649 44.7642 74.7479 44.9744C74.2308 45.1847 73.6115 45.2898 72.8899 45.2898ZM73.4439 43.2443C74.1484 43.2443 74.7507 43.1051 75.2507 42.8267C75.7564 42.5483 76.1399 42.1847 76.4013 41.7358C76.6683 41.2812 76.8018 40.7955 76.8018 40.2784V38.5909C76.7109 38.6818 76.5348 38.767 76.2734 38.8466C76.0178 38.9205 75.7251 38.9858 75.3956 39.0426C75.0661 39.0937 74.745 39.142 74.4325 39.1875C74.12 39.2273 73.8587 39.2614 73.6484 39.2898C73.1541 39.3523 72.7024 39.4574 72.2933 39.6051C71.8899 39.7528 71.5661 39.9659 71.3217 40.2443C71.0831 40.517 70.9638 40.8807 70.9638 41.3352C70.9638 41.9659 71.1967 42.4432 71.6626 42.767C72.1286 43.0852 72.7223 43.2443 73.4439 43.2443ZM88.9744 31.9091V33.9545H81.5767V31.9091H88.9744ZM83.6051 45V30.392C83.6051 29.5739 83.7841 28.8949 84.142 28.3551C84.5 27.8097 84.9744 27.4034 85.5653 27.1364C86.1563 26.8636 86.7983 26.7273 87.4915 26.7273C88.0028 26.7273 88.4403 26.7699 88.804 26.8551C89.1676 26.9347 89.4375 27.0085 89.6136 27.0767L89.017 29.1392C88.8977 29.1051 88.7443 29.0653 88.5568 29.0199C88.3693 28.9687 88.142 28.9432 87.875 28.9432C87.2557 28.9432 86.8125 29.0966 86.5455 29.4034C86.2841 29.7102 86.1534 30.1534 86.1534 30.733V45H83.6051ZM97.8338 31.9091V33.9545H90.4361V31.9091H97.8338ZM92.4645 45V30.392C92.4645 29.5739 92.6435 28.8949 93.0014 28.3551C93.3594 27.8097 93.8338 27.4034 94.4247 27.1364C95.0156 26.8636 95.6577 26.7273 96.3509 26.7273C96.8622 26.7273 97.2997 26.7699 97.6634 26.8551C98.027 26.9347 98.2969 27.0085 98.473 27.0767L97.8764 29.1392C97.7571 29.1051 97.6037 29.0653 97.4162 29.0199C97.2287 28.9687 97.0014 28.9432 96.7344 28.9432C96.1151 28.9432 95.6719 29.0966 95.4048 29.4034C95.1435 29.7102 95.0128 30.1534 95.0128 30.733V45H92.4645ZM100.463 45V31.9091H103.011V45H100.463ZM101.75 29.8892C101.307 29.8892 100.926 29.7415 100.608 29.446C100.295 29.1449 100.139 28.7869 100.139 28.3722C100.139 27.9517 100.295 27.5937 100.608 27.2983C100.926 26.9972 101.307 26.8466 101.75 26.8466C102.193 26.8466 102.571 26.9972 102.884 27.2983C103.202 27.5937 103.361 27.9517 103.361 28.3722C103.361 28.7869 103.202 29.1449 102.884 29.446C102.571 29.7415 102.193 29.8892 101.75 29.8892ZM111.954 45.2642C110.687 45.2642 109.596 44.9773 108.681 44.4034C107.772 43.8239 107.073 43.0256 106.585 42.0085C106.096 40.9915 105.852 39.8267 105.852 38.5142C105.852 37.1847 106.102 36.0114 106.602 34.9943C107.102 33.9716 107.806 33.1733 108.715 32.5994C109.624 32.0256 110.695 31.7386 111.928 31.7386C112.923 31.7386 113.809 31.9233 114.587 32.2926C115.366 32.6562 115.994 33.1676 116.471 33.8267C116.954 34.4858 117.241 35.2557 117.332 36.1364H114.852C114.715 35.5227 114.403 34.9943 113.914 34.5511C113.431 34.108 112.783 33.8864 111.971 33.8864C111.261 33.8864 110.638 34.0739 110.104 34.4489C109.576 34.8182 109.164 35.3466 108.869 36.0341C108.573 36.7159 108.425 37.5227 108.425 38.4545C108.425 39.4091 108.57 40.233 108.86 40.9261C109.15 41.6193 109.559 42.1562 110.087 42.5369C110.621 42.9176 111.249 43.108 111.971 43.108C112.454 43.108 112.891 43.0199 113.283 42.8438C113.681 42.6619 114.013 42.4034 114.281 42.0682C114.553 41.733 114.744 41.3295 114.852 40.858H117.332C117.241 41.7045 116.965 42.4602 116.505 43.125C116.045 43.7898 115.428 44.3125 114.656 44.6932C113.888 45.0739 112.988 45.2642 111.954 45.2642ZM132.638 31.9091V33.9545H125.241V31.9091H132.638ZM127.269 45V30.392C127.269 29.5739 127.448 28.8949 127.806 28.3551C128.164 27.8097 128.638 27.4034 129.229 27.1364C129.82 26.8636 130.462 26.7273 131.156 26.7273C131.667 26.7273 132.104 26.7699 132.468 26.8551C132.832 26.9347 133.102 27.0085 133.278 27.0767L132.681 29.1392C132.562 29.1051 132.408 29.0653 132.221 29.0199C132.033 28.9687 131.806 28.9432 131.539 28.9432C130.92 28.9432 130.477 29.0966 130.21 29.4034C129.948 29.7102 129.817 30.1534 129.817 30.733V45H127.269ZM135.268 45V31.9091H137.816V45H135.268ZM136.555 29.8892C136.112 29.8892 135.731 29.7415 135.413 29.446C135.1 29.1449 134.944 28.7869 134.944 28.3722C134.944 27.9517 135.1 27.5937 135.413 27.2983C135.731 26.9972 136.112 26.8466 136.555 26.8466C136.998 26.8466 137.376 26.9972 137.688 27.2983C138.006 27.5937 138.165 27.9517 138.165 28.3722C138.165 28.7869 138.006 29.1449 137.688 29.446C137.376 29.7415 136.998 29.8892 136.555 29.8892ZM143.793 37.2273V45H141.244V31.9091H143.69V34.0398H143.852C144.153 33.3466 144.625 32.7898 145.267 32.3693C145.915 31.9489 146.73 31.7386 147.713 31.7386C148.605 31.7386 149.386 31.9261 150.057 32.3011C150.727 32.6705 151.247 33.2216 151.616 33.9545C151.986 34.6875 152.17 35.5937 152.17 36.6733V45H149.622V36.9801C149.622 36.0312 149.375 35.2898 148.881 34.7557C148.386 34.2159 147.707 33.946 146.844 33.946C146.253 33.946 145.727 34.0739 145.267 34.3295C144.813 34.5852 144.452 34.9602 144.185 35.4545C143.923 35.9432 143.793 36.5341 143.793 37.2273ZM161.23 45.2642C159.94 45.2642 158.83 44.9886 157.898 44.4375C156.972 43.8807 156.256 43.0994 155.75 42.0938C155.25 41.0824 155 39.8977 155 38.5398C155 37.1989 155.25 36.017 155.75 34.9943C156.256 33.9716 156.96 33.1733 157.864 32.5994C158.773 32.0256 159.835 31.7386 161.051 31.7386C161.79 31.7386 162.506 31.8608 163.199 32.1051C163.892 32.3494 164.514 32.733 165.065 33.2557C165.616 33.7784 166.051 34.4574 166.369 35.2926C166.688 36.1222 166.847 37.1307 166.847 38.3182V39.2216H156.44V37.3125H164.349C164.349 36.642 164.213 36.0483 163.94 35.5312C163.668 35.0085 163.284 34.5966 162.79 34.2955C162.301 33.9943 161.727 33.8438 161.068 33.8438C160.352 33.8438 159.727 34.0199 159.193 34.3722C158.665 34.7187 158.256 35.1733 157.966 35.7358C157.682 36.2926 157.54 36.8977 157.54 37.5511V39.0426C157.54 39.9176 157.693 40.6619 158 41.2756C158.312 41.8892 158.747 42.358 159.304 42.6818C159.861 43 160.511 43.1591 161.256 43.1591C161.739 43.1591 162.179 43.0909 162.577 42.9545C162.974 42.8125 163.318 42.6023 163.608 42.3239C163.898 42.0455 164.119 41.7017 164.273 41.2926L166.685 41.7273C166.491 42.4375 166.145 43.0597 165.645 43.5938C165.151 44.1222 164.528 44.5341 163.778 44.8295C163.034 45.1193 162.185 45.2642 161.23 45.2642Z" fill="white"/>
</svg>
